<svg xmlns="http://www.w3.org/2000/svg" enable-background="new 0 0 24 24" viewBox="0 0 24 24" id="redis"><path d="M0,17.394c0,0.242,0.334,0.499,0.97,0.803c1.272,0.608,8.333,3.46,9.448,3.993c1.116,0.534,1.9,0.541,3.313-0.196c1.412-0.736,8.047-3.464,9.328-4.132c0.651-0.339,0.939-0.603,0.939-0.842c0-0.226,0.001-2.392,0.001-2.392c-0.001-0.001-0.004-0.001-0.005-0.002c-0.01,0.229-0.313,0.485-0.935,0.81c-1.281,0.667-7.916,3.396-9.328,4.132c-1.412,0.736-2.197,0.729-3.313,0.195C9.302,19.23,2.242,16.377,0.97,15.77C0.335,15.466,0.011,15.21,0,14.968V17.394z"></path><path d="M0,13.439c0,0.242,0.334,0.498,0.97,0.802c1.272,0.608,8.332,3.46,9.448,3.993c1.116,0.534,1.9,0.541,3.313-0.195c1.412-0.736,8.047-3.465,9.328-4.132c0.651-0.34,0.939-0.604,0.939-0.843c0-0.226,0.001-2.392,0.001-2.392c-0.001-0.001-0.004,0-0.006-0.001c-0.011,0.229-0.313,0.484-0.934,0.809c-1.281,0.667-7.916,3.396-9.328,4.132c-1.412,0.736-2.197,0.729-3.313,0.196s-8.176-3.386-9.448-3.994c-0.635-0.303-0.959-0.56-0.97-0.801V13.439z"></path><path d="M23.044,5.875c-1.248-0.457-7.843-3.082-9.106-3.545s-1.777-0.443-3.261,0.089C9.193,2.952,2.171,5.706,0.922,6.195C0.297,6.441-0.009,6.668,0.002,6.91v2.426c0,0.242,0.334,0.498,0.97,0.802c1.272,0.608,8.332,3.461,9.448,3.994c1.116,0.533,1.9,0.54,3.313-0.196c1.412-0.736,8.047-3.465,9.328-4.132C23.712,9.464,24,9.2,24,8.961c0-0.225,0.001-2.392,0.001-2.392h-0.008C24.005,6.325,23.686,6.111,23.044,5.875z M11.238,4.264L10.7,3.272l1.678,0.656L13.96,3.41l-0.428,1.025l1.612,0.604l-2.079,0.216l-0.466,1.12l-0.752-1.249L9.446,4.91L11.238,4.264z M4.122,6.815c0-0.636,1.331-1.152,2.973-1.152c1.642,0,2.972,0.516,2.972,1.152S8.736,7.967,7.095,7.967C5.454,7.967,4.122,7.45,4.122,6.815z M12.475,10.474L8.594,8.865l5.561-0.854L12.475,10.474z M17.248,8.086l-3.287-1.299l3.642-1.44l3.29,1.3L17.248,8.086z"></path></svg>